<svg width="299" height="48" viewBox="0 0 299 48" fill="none" xmlns="http://www.w3.org/2000/svg">
<path d="M0 5V0H34.9091V5H20.2727V46.5455H14.6364V5H0ZM48.4034 47.3636C46.1913 47.3636 44.1837 46.947 42.3807 46.1136C40.5777 45.2652 39.1458 44.0455 38.0852 42.4545C37.0246 40.8485 36.4943 38.9091 36.4943 36.6364C36.4943 34.6364 36.8883 33.0152 37.6761 31.7727C38.464 30.5152 39.517 29.5303 40.8352 28.8182C42.1534 28.1061 43.608 27.5758 45.1989 27.2273C46.8049 26.8636 48.4186 26.5758 50.0398 26.3636C52.161 26.0909 53.8807 25.8864 55.1989 25.75C56.5322 25.5985 57.5019 25.3485 58.108 25C58.7292 24.6515 59.0398 24.0455 59.0398 23.1818V23C59.0398 20.7576 58.4261 19.0152 57.1989 17.7727C55.9867 16.5303 54.1458 15.9091 51.6761 15.9091C49.1155 15.9091 47.108 16.4697 45.6534 17.5909C44.1989 18.7121 43.1761 19.9091 42.5852 21.1818L37.4943 19.3636C38.4034 17.2424 39.6155 15.5909 41.1307 14.4091C42.661 13.2121 44.3277 12.3788 46.1307 11.9091C47.9489 11.4242 49.7367 11.1818 51.4943 11.1818C52.6155 11.1818 53.9034 11.3182 55.358 11.5909C56.8277 11.8485 58.2443 12.3864 59.608 13.2045C60.9867 14.0227 62.1307 15.2576 63.0398 16.9091C63.9489 18.5606 64.4034 20.7727 64.4034 23.5455V46.5455H59.0398V41.8182H58.767C58.4034 42.5758 57.7973 43.3864 56.9489 44.25C56.1004 45.1136 54.9716 45.8485 53.5625 46.4545C52.1534 47.0606 50.4337 47.3636 48.4034 47.3636ZM49.2216 42.5455C51.3428 42.5455 53.1307 42.1288 54.5852 41.2955C56.0549 40.4621 57.161 39.3864 57.9034 38.0682C58.661 36.75 59.0398 35.3636 59.0398 33.9091V29C58.8125 29.2727 58.3125 29.5227 57.5398 29.75C56.7822 29.9621 55.9034 30.1515 54.9034 30.3182C53.9186 30.4697 52.9564 30.6061 52.017 30.7273C51.0928 30.8333 50.3428 30.9242 49.767 31C48.3731 31.1818 47.0701 31.4773 45.858 31.8864C44.661 32.2803 43.6913 32.8788 42.9489 33.6818C42.2216 34.4697 41.858 35.5455 41.858 36.9091C41.858 38.7727 42.5473 40.1818 43.9261 41.1364C45.3201 42.0758 47.0852 42.5455 49.2216 42.5455ZM98.9205 19.4545L94.1023 20.8182C93.7992 20.0152 93.3523 19.2348 92.7614 18.4773C92.1856 17.7045 91.3977 17.0682 90.3977 16.5682C89.3977 16.0682 88.1174 15.8182 86.5568 15.8182C84.4205 15.8182 82.6402 16.3106 81.2159 17.2955C79.8068 18.2652 79.1023 19.5 79.1023 21C79.1023 22.3333 79.5871 23.3864 80.5568 24.1591C81.5265 24.9318 83.0417 25.5758 85.1023 26.0909L90.2841 27.3636C93.4053 28.1212 95.7311 29.2803 97.2614 30.8409C98.7917 32.3864 99.5568 34.3788 99.5568 36.8182C99.5568 38.8182 98.9811 40.6061 97.8295 42.1818C96.6932 43.7576 95.1023 45 93.0568 45.9091C91.0114 46.8182 88.6326 47.2727 85.9205 47.2727C82.3598 47.2727 79.4129 46.5 77.0795 44.9545C74.7462 43.4091 73.2689 41.1515 72.6477 38.1818L77.7386 36.9091C78.2235 38.7879 79.1402 40.197 80.4886 41.1364C81.8523 42.0758 83.6326 42.5455 85.8295 42.5455C88.3295 42.5455 90.3144 42.0152 91.7841 40.9545C93.2689 39.8788 94.0114 38.5909 94.0114 37.0909C94.0114 35.8788 93.5871 34.8636 92.7386 34.0455C91.8902 33.2121 90.5871 32.5909 88.8295 32.1818L83.0114 30.8182C79.8144 30.0606 77.4659 28.8864 75.9659 27.2955C74.4811 25.6894 73.7386 23.6818 73.7386 21.2727C73.7386 19.303 74.2917 17.5606 75.3977 16.0455C76.5189 14.5303 78.0417 13.3409 79.9659 12.4773C81.9053 11.6136 84.1023 11.1818 86.5568 11.1818C90.0114 11.1818 92.7235 11.9394 94.6932 13.4545C96.678 14.9697 98.0871 16.9697 98.9205 19.4545ZM112.631 33.8182L112.54 27.1818H113.631L128.903 11.6364H135.54L119.267 28.0909H118.812L112.631 33.8182ZM107.631 46.5455V0H112.994V46.5455H107.631ZM129.812 46.5455L116.176 29.2727L119.994 25.5455L136.631 46.5455H129.812ZM151.625 46.5455L138.898 0H144.625L154.352 37.9091H154.807L164.716 0H171.08L180.989 37.9091H181.443L191.17 0H196.898L184.17 46.5455H178.352L168.08 9.45454H167.716L157.443 46.5455H151.625ZM210.216 47.3636C208.004 47.3636 205.996 46.947 204.193 46.1136C202.39 45.2652 200.958 44.0455 199.898 42.4545C198.837 40.8485 198.307 38.9091 198.307 36.6364C198.307 34.6364 198.701 33.0152 199.489 31.7727C200.277 30.5152 201.33 29.5303 202.648 28.8182C203.966 28.1061 205.42 27.5758 207.011 27.2273C208.617 26.8636 210.231 26.5758 211.852 26.3636C213.973 26.0909 215.693 25.8864 217.011 25.75C218.345 25.5985 219.314 25.3485 219.92 25C220.542 24.6515 220.852 24.0455 220.852 23.1818V23C220.852 20.7576 220.239 19.0152 219.011 17.7727C217.799 16.5303 215.958 15.9091 213.489 15.9091C210.928 15.9091 208.92 16.4697 207.466 17.5909C206.011 18.7121 204.989 19.9091 204.398 21.1818L199.307 19.3636C200.216 17.2424 201.428 15.5909 202.943 14.4091C204.473 13.2121 206.14 12.3788 207.943 11.9091C209.761 11.4242 211.549 11.1818 213.307 11.1818C214.428 11.1818 215.716 11.3182 217.17 11.5909C218.64 11.8485 220.057 12.3864 221.42 13.2045C222.799 14.0227 223.943 15.2576 224.852 16.9091C225.761 18.5606 226.216 20.7727 226.216 23.5455V46.5455H220.852V41.8182H220.58C220.216 42.5758 219.61 43.3864 218.761 44.25C217.913 45.1136 216.784 45.8485 215.375 46.4545C213.966 47.0606 212.246 47.3636 210.216 47.3636ZM211.034 42.5455C213.155 42.5455 214.943 42.1288 216.398 41.2955C217.867 40.4621 218.973 39.3864 219.716 38.0682C220.473 36.75 220.852 35.3636 220.852 33.9091V29C220.625 29.2727 220.125 29.5227 219.352 29.75C218.595 29.9621 217.716 30.1515 216.716 30.3182C215.731 30.4697 214.769 30.6061 213.83 30.7273C212.905 30.8333 212.155 30.9242 211.58 31C210.186 31.1818 208.883 31.4773 207.67 31.8864C206.473 32.2803 205.504 32.8788 204.761 33.6818C204.034 34.4697 203.67 35.5455 203.67 36.9091C203.67 38.7727 204.36 40.1818 205.739 41.1364C207.133 42.0758 208.898 42.5455 211.034 42.5455ZM263.301 11.6364L250.392 46.5455H244.938L232.028 11.6364H237.847L247.483 39.4545H247.847L257.483 11.6364H263.301ZM283.767 47.2727C280.403 47.2727 277.502 46.5303 275.062 45.0455C272.638 43.5455 270.767 41.4545 269.449 38.7727C268.146 36.0758 267.494 32.9394 267.494 29.3636C267.494 25.7879 268.146 22.6364 269.449 19.9091C270.767 17.1667 272.6 15.0303 274.949 13.5C277.312 11.9545 280.07 11.1818 283.222 11.1818C285.04 11.1818 286.835 11.4848 288.608 12.0909C290.381 12.697 291.994 13.6818 293.449 15.0455C294.903 16.3939 296.062 18.1818 296.926 20.4091C297.79 22.6364 298.222 25.3788 298.222 28.6364V30.9091H271.312V26.2727H292.767C292.767 24.303 292.373 22.5455 291.585 21C290.812 19.4545 289.706 18.2348 288.267 17.3409C286.843 16.447 285.161 16 283.222 16C281.085 16 279.237 16.5303 277.676 17.5909C276.131 18.6364 274.941 20 274.108 21.6818C273.275 23.3636 272.858 25.1667 272.858 27.0909V30.1818C272.858 32.8182 273.312 35.053 274.222 36.8864C275.146 38.7045 276.426 40.0909 278.062 41.0455C279.699 41.9848 281.6 42.4545 283.767 42.4545C285.176 42.4545 286.449 42.2576 287.585 41.8636C288.737 41.4545 289.729 40.8485 290.562 40.0455C291.396 39.2273 292.04 38.2121 292.494 37L297.676 38.4545C297.131 40.2121 296.214 41.7576 294.926 43.0909C293.638 44.4091 292.047 45.4394 290.153 46.1818C288.259 46.9091 286.131 47.2727 283.767 47.2727Z" fill="white"/>
</svg>
