<svg width="50" height="52" viewBox="0 0 50 52" fill="none" xmlns="http://www.w3.org/2000/svg">
<g filter="url(#filter0_d_457_160)">
<path d="M19 27.4545C18.1716 27.4545 17.5 28.1058 17.5 28.9091C17.5 29.7124 18.1716 30.3636 19 30.3636H19.015C19.8434 30.3636 20.515 29.7124 20.515 28.9091C20.515 28.1058 19.8434 27.4545 19.015 27.4545H19Z" fill="#5A77DF"/>
<path d="M25 27.4545C24.1716 27.4545 23.5 28.1058 23.5 28.9091C23.5 29.7124 24.1716 30.3636 25 30.3636H25.015C25.8434 30.3636 26.515 29.7124 26.515 28.9091C26.515 28.1058 25.8434 27.4545 25.015 27.4545H25Z" fill="#5A77DF"/>
<path d="M31 27.4545C30.1716 27.4545 29.5 28.1058 29.5 28.9091C29.5 29.7124 30.1716 30.3636 31 30.3636H31.015C31.8434 30.3636 32.515 29.7124 32.515 28.9091C32.515 28.1058 31.8434 27.4545 31.015 27.4545H31Z" fill="#5A77DF"/>
<path d="M19 33.2727C18.1716 33.2727 17.5 33.924 17.5 34.7273C17.5 35.5306 18.1716 36.1818 19 36.1818H19.015C19.8434 36.1818 20.515 35.5306 20.515 34.7273C20.515 33.924 19.8434 33.2727 19.015 33.2727H19Z" fill="#5A77DF"/>
<path d="M25 33.2727C24.1716 33.2727 23.5 33.924 23.5 34.7273C23.5 35.5306 24.1716 36.1818 25 36.1818H25.015C25.8434 36.1818 26.515 35.5306 26.515 34.7273C26.515 33.924 25.8434 33.2727 25.015 33.2727H25Z" fill="#5A77DF"/>
<path d="M31 33.2727C30.1716 33.2727 29.5 33.924 29.5 34.7273C29.5 35.5306 30.1716 36.1818 31 36.1818H31.015C31.8434 36.1818 32.515 35.5306 32.515 34.7273C32.515 33.924 31.8434 33.2727 31.015 33.2727H31Z" fill="#5A77DF"/>
<path fill-rule="evenodd" clip-rule="evenodd" d="M19 10C19.8284 10 20.5 10.6512 20.5 11.4545V12.9091H29.5V11.4545C29.5 10.6512 30.1716 10 31 10C31.8284 10 32.5 10.6512 32.5 11.4545V12.9091H35.5C37.9853 12.9091 40 14.8628 40 17.2727V37.6364C40 40.0463 37.9853 42 35.5 42H14.5C12.0147 42 10 40.0463 10 37.6364V17.2727C10 14.8628 12.0147 12.9091 14.5 12.9091H17.5V11.4545C17.5 10.6512 18.1716 10 19 10ZM13 24.5455V37.6364C13 38.4397 13.6716 39.0909 14.5 39.0909H35.5C36.3284 39.0909 37 38.4397 37 37.6364V24.5455H13ZM37 21.6364H13V17.2727C13 16.4694 13.6716 15.8182 14.5 15.8182H17.5V17.2727C17.5 18.0761 18.1716 18.7273 19 18.7273C19.8284 18.7273 20.5 18.0761 20.5 17.2727V15.8182H29.5V17.2727C29.5 18.0761 30.1716 18.7273 31 18.7273C31.8284 18.7273 32.5 18.0761 32.5 17.2727V15.8182H35.5C36.3284 15.8182 37 16.4694 37 17.2727V21.6364Z" fill="#5A77DF"/>
<path d="M37 21.6364H13V17.2727C13 16.4694 13.6716 15.8182 14.5 15.8182H17.5V17.2727C17.5 18.0761 18.1716 18.7273 19 18.7273C19.8284 18.7273 20.5 18.0761 20.5 17.2727V15.8182H29.5V17.2727C29.5 18.0761 30.1716 18.7273 31 18.7273C31.8284 18.7273 32.5 18.0761 32.5 17.2727V15.8182H35.5C36.3284 15.8182 37 16.4694 37 17.2727V21.6364Z" fill="#EDEEF0"/>
<path fill-rule="evenodd" clip-rule="evenodd" d="M13 24.5455V37.6364C13 38.4397 13.6716 39.0909 14.5 39.0909H35.5C36.3284 39.0909 37 38.4397 37 37.6364V24.5455H13ZM17.5 28.9091C17.5 28.1058 18.1716 27.4545 19 27.4545H19.015C19.8434 27.4545 20.515 28.1058 20.515 28.9091C20.515 29.7124 19.8434 30.3636 19.015 30.3636H19C18.1716 30.3636 17.5 29.7124 17.5 28.9091ZM23.5 28.9091C23.5 28.1058 24.1716 27.4545 25 27.4545H25.015C25.8434 27.4545 26.515 28.1058 26.515 28.9091C26.515 29.7124 25.8434 30.3636 25.015 30.3636H25C24.1716 30.3636 23.5 29.7124 23.5 28.9091ZM29.5 28.9091C29.5 28.1058 30.1716 27.4545 31 27.4545H31.015C31.8434 27.4545 32.515 28.1058 32.515 28.9091C32.515 29.7124 31.8434 30.3636 31.015 30.3636H31C30.1716 30.3636 29.5 29.7124 29.5 28.9091ZM17.5 34.7273C17.5 33.924 18.1716 33.2727 19 33.2727H19.015C19.8434 33.2727 20.515 33.924 20.515 34.7273C20.515 35.5306 19.8434 36.1818 19.015 36.1818H19C18.1716 36.1818 17.5 35.5306 17.5 34.7273ZM23.5 34.7273C23.5 33.924 24.1716 33.2727 25 33.2727H25.015C25.8434 33.2727 26.515 33.924 26.515 34.7273C26.515 35.5306 25.8434 36.1818 25.015 36.1818H25C24.1716 36.1818 23.5 35.5306 23.5 34.7273ZM29.5 34.7273C29.5 33.924 30.1716 33.2727 31 33.2727H31.015C31.8434 33.2727 32.515 33.924 32.515 34.7273C32.515 35.5306 31.8434 36.1818 31.015 36.1818H31C30.1716 36.1818 29.5 35.5306 29.5 34.7273Z" fill="#EDEEF0"/>
</g>
<defs>
<filter id="filter0_d_457_160" x="0" y="0" width="50" height="52" filterUnits="userSpaceOnUse" color-interpolation-filters="sRGB">
<feFlood flood-opacity="0" result="BackgroundImageFix"/>
<feColorMatrix in="SourceAlpha" type="matrix" values="0 0 0 0 0 0 0 0 0 0 0 0 0 0 0 0 0 0 127 0" result="hardAlpha"/>
<feMorphology radius="3" operator="dilate" in="SourceAlpha" result="effect1_dropShadow_457_160"/>
<feOffset/>
<feGaussianBlur stdDeviation="3.5"/>
<feComposite in2="hardAlpha" operator="out"/>
<feColorMatrix type="matrix" values="0 0 0 0 0.196078 0 0 0 0 0.223529 0 0 0 0 0.333333 0 0 0 0.75 0"/>
<feBlend mode="normal" in2="BackgroundImageFix" result="effect1_dropShadow_457_160"/>
<feBlend mode="normal" in="SourceGraphic" in2="effect1_dropShadow_457_160" result="shape"/>
</filter>
</defs>
</svg>
