<svg width="30" height="32" viewBox="0 0 30 32" fill="none" xmlns="http://www.w3.org/2000/svg">
<path d="M8.99994 17.4545C8.17151 17.4545 7.49994 18.1058 7.49994 18.9091C7.49994 19.7124 8.17151 20.3636 8.99994 20.3636H9.01494C9.84337 20.3636 10.5149 19.7124 10.5149 18.9091C10.5149 18.1058 9.84337 17.4545 9.01494 17.4545H8.99994Z" fill="#5879CE"/>
<path d="M14.9999 17.4545C14.1715 17.4545 13.4999 18.1058 13.4999 18.9091C13.4999 19.7124 14.1715 20.3636 14.9999 20.3636H15.0149C15.8434 20.3636 16.5149 19.7124 16.5149 18.9091C16.5149 18.1058 15.8434 17.4545 15.0149 17.4545H14.9999Z" fill="#5879CE"/>
<path d="M20.9999 17.4545C20.1715 17.4545 19.4999 18.1058 19.4999 18.9091C19.4999 19.7124 20.1715 20.3636 20.9999 20.3636H21.0149C21.8434 20.3636 22.5149 19.7124 22.5149 18.9091C22.5149 18.1058 21.8434 17.4545 21.0149 17.4545H20.9999Z" fill="#5879CE"/>
<path d="M8.99994 23.2727C8.17151 23.2727 7.49994 23.924 7.49994 24.7273C7.49994 25.5306 8.17151 26.1818 8.99994 26.1818H9.01494C9.84337 26.1818 10.5149 25.5306 10.5149 24.7273C10.5149 23.924 9.84337 23.2727 9.01494 23.2727H8.99994Z" fill="#5879CE"/>
<path d="M14.9999 23.2727C14.1715 23.2727 13.4999 23.924 13.4999 24.7273C13.4999 25.5306 14.1715 26.1818 14.9999 26.1818H15.0149C15.8434 26.1818 16.5149 25.5306 16.5149 24.7273C16.5149 23.924 15.8434 23.2727 15.0149 23.2727H14.9999Z" fill="#5879CE"/>
<path d="M20.9999 23.2727C20.1715 23.2727 19.4999 23.924 19.4999 24.7273C19.4999 25.5306 20.1715 26.1818 20.9999 26.1818H21.0149C21.8434 26.1818 22.5149 25.5306 22.5149 24.7273C22.5149 23.924 21.8434 23.2727 21.0149 23.2727H20.9999Z" fill="#5879CE"/>
<path fill-rule="evenodd" clip-rule="evenodd" d="M8.99994 0C9.82837 0 10.4999 0.651222 10.4999 1.45455V2.90909H19.4999V1.45455C19.4999 0.651222 20.1715 0 20.9999 0C21.8284 0 22.4999 0.651222 22.4999 1.45455V2.90909H25.4999C27.9852 2.90909 29.9999 4.86276 29.9999 7.27273V27.6364C29.9999 30.0463 27.9852 32 25.4999 32H4.49994C2.01466 32 -6.10352e-05 30.0463 -6.10352e-05 27.6364V7.27273C-6.10352e-05 4.86276 2.01466 2.90909 4.49994 2.90909H7.49994V1.45455C7.49994 0.651222 8.17151 0 8.99994 0ZM2.99994 14.5455V27.6364C2.99994 28.4397 3.67151 29.0909 4.49994 29.0909H25.4999C26.3284 29.0909 26.9999 28.4397 26.9999 27.6364V14.5455H2.99994ZM26.9999 11.6364H2.99994V7.27273C2.99994 6.4694 3.67151 5.81818 4.49994 5.81818H7.49994V7.27273C7.49994 8.07605 8.17151 8.72727 8.99994 8.72727C9.82837 8.72727 10.4999 8.07605 10.4999 7.27273V5.81818H19.4999V7.27273C19.4999 8.07605 20.1715 8.72727 20.9999 8.72727C21.8284 8.72727 22.4999 8.07605 22.4999 7.27273V5.81818H25.4999C26.3284 5.81818 26.9999 6.4694 26.9999 7.27273V11.6364Z" fill="#5879CE"/>
<path d="M26.9999 11.6364H2.99994V7.27273C2.99994 6.4694 3.67151 5.81818 4.49994 5.81818H7.49994V7.27273C7.49994 8.07605 8.17151 8.72727 8.99994 8.72727C9.82837 8.72727 10.4999 8.07605 10.4999 7.27273V5.81818H19.4999V7.27273C19.4999 8.07605 20.1715 8.72727 20.9999 8.72727C21.8284 8.72727 22.4999 8.07605 22.4999 7.27273V5.81818H25.4999C26.3284 5.81818 26.9999 6.4694 26.9999 7.27273V11.6364Z" fill="#EDEEF0"/>
<path fill-rule="evenodd" clip-rule="evenodd" d="M2.99994 14.5455V27.6364C2.99994 28.4397 3.67151 29.0909 4.49994 29.0909H25.4999C26.3284 29.0909 26.9999 28.4397 26.9999 27.6364V14.5455H2.99994ZM7.49994 18.9091C7.49994 18.1058 8.17151 17.4545 8.99994 17.4545H9.01494C9.84337 17.4545 10.5149 18.1058 10.5149 18.9091C10.5149 19.7124 9.84337 20.3636 9.01494 20.3636H8.99994C8.17151 20.3636 7.49994 19.7124 7.49994 18.9091ZM13.4999 18.9091C13.4999 18.1058 14.1715 17.4545 14.9999 17.4545H15.0149C15.8434 17.4545 16.5149 18.1058 16.5149 18.9091C16.5149 19.7124 15.8434 20.3636 15.0149 20.3636H14.9999C14.1715 20.3636 13.4999 19.7124 13.4999 18.9091ZM19.4999 18.9091C19.4999 18.1058 20.1715 17.4545 20.9999 17.4545H21.0149C21.8434 17.4545 22.5149 18.1058 22.5149 18.9091C22.5149 19.7124 21.8434 20.3636 21.0149 20.3636H20.9999C20.1715 20.3636 19.4999 19.7124 19.4999 18.9091ZM7.49994 24.7273C7.49994 23.924 8.17151 23.2727 8.99994 23.2727H9.01494C9.84337 23.2727 10.5149 23.924 10.5149 24.7273C10.5149 25.5306 9.84337 26.1818 9.01494 26.1818H8.99994C8.17151 26.1818 7.49994 25.5306 7.49994 24.7273ZM13.4999 24.7273C13.4999 23.924 14.1715 23.2727 14.9999 23.2727H15.0149C15.8434 23.2727 16.5149 23.924 16.5149 24.7273C16.5149 25.5306 15.8434 26.1818 15.0149 26.1818H14.9999C14.1715 26.1818 13.4999 25.5306 13.4999 24.7273ZM19.4999 24.7273C19.4999 23.924 20.1715 23.2727 20.9999 23.2727H21.0149C21.8434 23.2727 22.5149 23.924 22.5149 24.7273C22.5149 25.5306 21.8434 26.1818 21.0149 26.1818H20.9999C20.1715 26.1818 19.4999 25.5306 19.4999 24.7273Z" fill="#EDEEF0"/>
</svg>
