<svg width="24" height="24" viewBox="0 0 24 24" fill="none" xmlns="http://www.w3.org/2000/svg">
<path d="M10.56 22.56C10.56 22.9419 10.4083 23.3082 10.1382 23.5782C9.86818 23.8483 9.50191 24 9.12 24H2.4C1.76348 24 1.15303 23.7471 0.702944 23.2971C0.252856 22.847 0 22.2365 0 21.6V2.4C0 1.76348 0.252856 1.15303 0.702944 0.702944C1.15303 0.252856 1.76348 0 2.4 0H9.12C9.50191 0 9.86818 0.151714 10.1382 0.421766C10.4083 0.691819 10.56 1.05809 10.56 1.44C10.56 1.82191 10.4083 2.18818 10.1382 2.45823C9.86818 2.72829 9.50191 2.88 9.12 2.88H2.88V21.12H9.12C9.50191 21.12 9.86818 21.2717 10.1382 21.5418C10.4083 21.8118 10.56 22.1781 10.56 22.56ZM23.5788 10.9812L18.7788 6.1812C18.5083 5.91068 18.1414 5.7587 17.7588 5.7587C17.3762 5.7587 17.0093 5.91068 16.7388 6.1812C16.4683 6.45172 16.3163 6.81863 16.3163 7.2012C16.3163 7.58377 16.4683 7.95068 16.7388 8.2212L19.08 10.56H9.12C8.73809 10.56 8.37182 10.7117 8.10177 10.9818C7.83171 11.2518 7.68 11.6181 7.68 12C7.68 12.3819 7.83171 12.7482 8.10177 13.0182C8.37182 13.2883 8.73809 13.44 9.12 13.44H19.08L16.7376 15.7812C16.4671 16.0517 16.3151 16.4186 16.3151 16.8012C16.3151 17.1838 16.4671 17.5507 16.7376 17.8212C17.0081 18.0917 17.375 18.2437 17.7576 18.2437C18.1402 18.2437 18.5071 18.0917 18.7776 17.8212L23.5776 13.0212C23.7119 12.8875 23.8185 12.7286 23.8913 12.5536C23.9641 12.3786 24.0016 12.191 24.0017 12.0014C24.0018 11.8119 23.9645 11.6242 23.892 11.4492C23.8194 11.2741 23.713 11.1151 23.5788 10.9812Z" fill="#F03737"/>
</svg>
