<svg width="49" height="56" viewBox="0 0 49 56" fill="none" xmlns="http://www.w3.org/2000/svg">
<g filter="url(#filter0_d_457_149)">
<path d="M12 32.8C12 32.8 13.5625 31.2 18.25 31.2C22.9375 31.2 26.0625 34.4 30.75 34.4C35.4375 34.4 37 32.8 37 32.8V13.6C37 13.6 35.4375 15.2 30.75 15.2C26.0625 15.2 22.9375 12 18.25 12C13.5625 12 12 13.6 12 13.6V32.8ZM12 44V32.8V44Z" fill="#EDEEF0"/>
<path d="M12 32.8C12 32.8 13.5625 31.2 18.25 31.2C22.9375 31.2 26.0625 34.4 30.75 34.4C35.4375 34.4 37 32.8 37 32.8V13.6C37 13.6 35.4375 15.2 30.75 15.2C26.0625 15.2 22.9375 12 18.25 12C13.5625 12 12 13.6 12 13.6V32.8ZM12 32.8V44" stroke="#5A77DF" stroke-width="3" stroke-linecap="round" stroke-linejoin="round"/>
</g>
<defs>
<filter id="filter0_d_457_149" x="0.5" y="0.5" width="48" height="55" filterUnits="userSpaceOnUse" color-interpolation-filters="sRGB">
<feFlood flood-opacity="0" result="BackgroundImageFix"/>
<feColorMatrix in="SourceAlpha" type="matrix" values="0 0 0 0 0 0 0 0 0 0 0 0 0 0 0 0 0 0 127 0" result="hardAlpha"/>
<feMorphology radius="3" operator="dilate" in="SourceAlpha" result="effect1_dropShadow_457_149"/>
<feOffset/>
<feGaussianBlur stdDeviation="3.5"/>
<feComposite in2="hardAlpha" operator="out"/>
<feColorMatrix type="matrix" values="0 0 0 0 0.196078 0 0 0 0 0.223529 0 0 0 0 0.333333 0 0 0 0.75 0"/>
<feBlend mode="normal" in2="BackgroundImageFix" result="effect1_dropShadow_457_149"/>
<feBlend mode="normal" in="SourceGraphic" in2="effect1_dropShadow_457_149" result="shape"/>
</filter>
</defs>
</svg>
