<svg width="29" height="36" viewBox="0 0 29 36" fill="none" xmlns="http://www.w3.org/2000/svg">
<path d="M1.99994 22.8C1.99994 22.8 3.56244 21.2 8.24994 21.2C12.9374 21.2 16.0624 24.4 20.7499 24.4C25.4374 24.4 26.9999 22.8 26.9999 22.8V3.6C26.9999 3.6 25.4374 5.2 20.7499 5.2C16.0624 5.2 12.9374 2 8.24994 2C3.56244 2 1.99994 3.6 1.99994 3.6V22.8ZM1.99994 34V22.8V34Z" fill="#EDEEF0"/>
<path d="M1.99994 22.8C1.99994 22.8 3.56244 21.2 8.24994 21.2C12.9374 21.2 16.0624 24.4 20.7499 24.4C25.4374 24.4 26.9999 22.8 26.9999 22.8V3.6C26.9999 3.6 25.4374 5.2 20.7499 5.2C16.0624 5.2 12.9374 2 8.24994 2C3.56244 2 1.99994 3.6 1.99994 3.6V22.8ZM1.99994 22.8V34" stroke="#5A77DF" stroke-width="3" stroke-linecap="round" stroke-linejoin="round"/>
</svg>
