<svg width="36" height="36" viewBox="0 0 36 36" fill="none" xmlns="http://www.w3.org/2000/svg">
<path d="M12.6666 2H3.77772C2.79588 2 1.99994 2.79594 1.99994 3.77778V12.6667C1.99994 13.6485 2.79588 14.4444 3.77772 14.4444H12.6666C13.6484 14.4444 14.4444 13.6485 14.4444 12.6667V3.77778C14.4444 2.79594 13.6484 2 12.6666 2Z" fill="#EDEEF0"/>
<path d="M32.2222 2H23.3333C22.3514 2 21.5555 2.79594 21.5555 3.77778V12.6667C21.5555 13.6485 22.3514 14.4444 23.3333 14.4444H32.2222C33.204 14.4444 33.9999 13.6485 33.9999 12.6667V3.77778C33.9999 2.79594 33.204 2 32.2222 2Z" fill="#EDEEF0"/>
<path d="M32.2222 21.5556H23.3333C22.3514 21.5556 21.5555 22.3515 21.5555 23.3333V32.2222C21.5555 33.2041 22.3514 34 23.3333 34H32.2222C33.204 34 33.9999 33.2041 33.9999 32.2222V23.3333C33.9999 22.3515 33.204 21.5556 32.2222 21.5556Z" fill="#EDEEF0"/>
<path d="M12.6666 21.5556H3.77772C2.79588 21.5556 1.99994 22.3515 1.99994 23.3333V32.2222C1.99994 33.2041 2.79588 34 3.77772 34H12.6666C13.6484 34 14.4444 33.2041 14.4444 32.2222V23.3333C14.4444 22.3515 13.6484 21.5556 12.6666 21.5556Z" fill="#EDEEF0"/>
<path d="M12.6666 2H3.77772C2.79588 2 1.99994 2.79594 1.99994 3.77778V12.6667C1.99994 13.6485 2.79588 14.4444 3.77772 14.4444H12.6666C13.6484 14.4444 14.4444 13.6485 14.4444 12.6667V3.77778C14.4444 2.79594 13.6484 2 12.6666 2Z" stroke="#5A77DF" stroke-width="3" stroke-linecap="round" stroke-linejoin="round"/>
<path d="M32.2222 2H23.3333C22.3514 2 21.5555 2.79594 21.5555 3.77778V12.6667C21.5555 13.6485 22.3514 14.4444 23.3333 14.4444H32.2222C33.204 14.4444 33.9999 13.6485 33.9999 12.6667V3.77778C33.9999 2.79594 33.204 2 32.2222 2Z" stroke="#5A77DF" stroke-width="3" stroke-linecap="round" stroke-linejoin="round"/>
<path d="M32.2222 21.5556H23.3333C22.3514 21.5556 21.5555 22.3515 21.5555 23.3333V32.2222C21.5555 33.2041 22.3514 34 23.3333 34H32.2222C33.204 34 33.9999 33.2041 33.9999 32.2222V23.3333C33.9999 22.3515 33.204 21.5556 32.2222 21.5556Z" stroke="#5A77DF" stroke-width="3" stroke-linecap="round" stroke-linejoin="round"/>
<path d="M12.6666 21.5556H3.77772C2.79588 21.5556 1.99994 22.3515 1.99994 23.3333V32.2222C1.99994 33.2041 2.79588 34 3.77772 34H12.6666C13.6484 34 14.4444 33.2041 14.4444 32.2222V23.3333C14.4444 22.3515 13.6484 21.5556 12.6666 21.5556Z" stroke="#5A77DF" stroke-width="3" stroke-linecap="round" stroke-linejoin="round"/>
</svg>
