<svg width="36" height="36" viewBox="0 0 36 36" fill="none" xmlns="http://www.w3.org/2000/svg">
<path d="M12.6666 2H3.77777C2.79594 2 2 2.79594 2 3.77777V12.6666C2 13.6485 2.79594 14.4444 3.77777 14.4444H12.6666C13.6485 14.4444 14.4444 13.6485 14.4444 12.6666V3.77777C14.4444 2.79594 13.6485 2 12.6666 2Z" fill="#EDEEF0"/>
<path d="M12.6666 21.5556H3.77778C2.79594 21.5556 2 22.3515 2 23.3333V32.2222C2 33.2041 2.79594 34 3.77778 34H12.6666C13.6485 34 14.4444 33.2041 14.4444 32.2222V23.3333C14.4444 22.3515 13.6485 21.5556 12.6666 21.5556Z" fill="#EDEEF0"/>
<path d="M21.5555 3.77784H33.9999H21.5555ZM21.5555 12.6667H33.9999H21.5555ZM21.5555 23.3334H33.9999H21.5555ZM21.5555 32.2222H33.9999H21.5555Z" fill="#5A77DF"/>
<path d="M21.5555 3.77784H33.9999M21.5555 12.6667H33.9999M21.5555 23.3334H33.9999M21.5555 32.2222H33.9999M3.77777 2H12.6666C13.6485 2 14.4444 2.79594 14.4444 3.77777V12.6666C14.4444 13.6485 13.6485 14.4444 12.6666 14.4444H3.77777C2.79594 14.4444 2 13.6485 2 12.6666V3.77777C2 2.79594 2.79594 2 3.77777 2ZM3.77778 21.5556H12.6666C13.6485 21.5556 14.4444 22.3515 14.4444 23.3333V32.2222C14.4444 33.2041 13.6485 34 12.6666 34H3.77778C2.79594 34 2 33.2041 2 32.2222V23.3333C2 22.3515 2.79594 21.5556 3.77778 21.5556Z" stroke="#5A77DF" stroke-width="3" stroke-linecap="round" stroke-linejoin="round"/>
</svg>
