<svg width="55" height="60" viewBox="0 0 55 60" fill="none" xmlns="http://www.w3.org/2000/svg">
<path d="M25.0774 34.6317C23.4844 39.6765 24.2002 45.3967 27.5038 50.0094C31.4276 55.4889 37.4503 57.8354 43.9911 56.8724C47.6885 56.3278 49.9642 54.5271 49.9649 54.5271C54.3762 50.9647 55.2833 46.769 53.909 44.6489C52.6487 42.7026 50.7586 41.3576 45.511 42.7082C37.5241 44.8091 27.2787 40.3396 25.0774 34.6317Z" fill="url(#paint0_linear_404_508)"/>
<path d="M25.0774 34.6317C23.4844 39.6765 24.2002 45.3967 27.5039 50.0094C31.4276 55.4889 37.4503 57.8354 43.9912 56.8724C47.6886 56.3278 49.9642 54.5271 49.9649 54.5271C54.3762 50.9647 55.2833 46.769 53.9091 44.6489C52.6487 42.7026 50.7586 41.3576 45.511 42.7082C37.5242 44.8091 27.2787 40.3396 25.0774 34.6317Z" fill="url(#paint1_linear_404_508)"/>
<path d="M31.2432 25.9836C36.2333 22.2999 42.5397 21.785 47.8343 24.0636C51.0898 13.8166 42.1788 9.64507 38.7315 11.2274C39.2919 7.71729 37.4532 3.73076 32.3597 2.53645C26.0948 1.06731 21.7596 5.39489 21.7596 5.39489C21.7596 5.39489 22.9204 1.99675 19.5199 0.39323C16.7771 -0.900396 13.6445 1.41202 13.6445 1.41202C-0.607467 11.9322 -3.7598 32.1891 6.60267 46.6568C14.4087 57.5555 27.6566 62.0598 39.8101 59.122C43.0984 58.3274 47.1936 56.6669 49.675 54.746C42.2675 59.0648 32.6417 57.1828 27.5039 50.0092C22.0011 42.3265 23.6753 31.5698 31.2432 25.9836Z" fill="url(#paint2_linear_404_508)"/>
<path d="M31.2432 25.9836C36.2333 22.2999 42.5397 21.785 47.8343 24.0636C51.0898 13.8166 42.1788 9.64507 38.7315 11.2274C39.2919 7.71729 37.4532 3.73076 32.3597 2.53645C26.0948 1.06731 21.7596 5.39489 21.7596 5.39489C21.7596 5.39489 22.9204 1.99675 19.5199 0.39323C16.7771 -0.900396 13.6445 1.41202 13.6445 1.41202C-0.607467 11.9322 -3.7598 32.1891 6.60267 46.6568C14.4087 57.5555 27.6566 62.0598 39.8101 59.122C43.0984 58.3274 47.1936 56.6669 49.675 54.746C42.2675 59.0648 32.6417 57.1828 27.5039 50.0092C22.0011 42.3265 23.6753 31.5698 31.2432 25.9836Z" fill="url(#paint3_linear_404_508)"/>
<path d="M31.2432 25.9836C36.2333 22.2999 42.5397 21.785 47.8343 24.0636C51.0898 13.8166 42.1788 9.64507 38.7315 11.2274C39.2919 7.71729 37.4532 3.73076 32.3597 2.53645C26.0948 1.06731 21.7596 5.39489 21.7596 5.39489C21.7596 5.39489 22.9204 1.99675 19.5199 0.39323C16.7771 -0.900396 13.6445 1.41202 13.6445 1.41202C-0.607467 11.9322 -3.7598 32.1891 6.60267 46.6568C14.4087 57.5555 27.6566 62.0598 39.8101 59.122C43.0984 58.3274 47.1936 56.6669 49.675 54.746C42.2675 59.0648 32.6417 57.1828 27.5039 50.0092C22.0011 42.3265 23.6753 31.5698 31.2432 25.9836Z" fill="url(#paint4_linear_404_508)"/>
<defs>
<linearGradient id="paint0_linear_404_508" x1="30.3465" y1="49.8" x2="54.3036" y2="45.7212" gradientUnits="userSpaceOnUse">
<stop stop-color="#3273BF"/>
<stop offset="0.964" stop-color="#65F4CD"/>
</linearGradient>
<linearGradient id="paint1_linear_404_508" x1="30.3466" y1="49.8" x2="54.3036" y2="45.7212" gradientUnits="userSpaceOnUse">
<stop stop-color="#3273BF"/>
<stop offset="0.964" stop-color="#65F4CD"/>
</linearGradient>
<linearGradient id="paint2_linear_404_508" x1="13.207" y1="15.9" x2="36.3713" y2="43.8801" gradientUnits="userSpaceOnUse">
<stop stop-color="#65F4CD"/>
<stop offset="1" stop-color="#4799E9"/>
</linearGradient>
<linearGradient id="paint3_linear_404_508" x1="13.207" y1="15.9" x2="36.3713" y2="43.8801" gradientUnits="userSpaceOnUse">
<stop stop-color="#65F4CD"/>
<stop offset="1" stop-color="#4799E9"/>
</linearGradient>
<linearGradient id="paint4_linear_404_508" x1="13.207" y1="15.9" x2="36.3713" y2="43.8801" gradientUnits="userSpaceOnUse">
<stop stop-color="#65F4CD"/>
<stop offset="1" stop-color="#4799E9"/>
</linearGradient>
</defs>
</svg>
