<svg width="29" height="32" viewBox="0 0 29 32" fill="none" xmlns="http://www.w3.org/2000/svg">
<path fill-rule="evenodd" clip-rule="evenodd" d="M24.7058 14.1333L6.44218 3.53179C6.11574 3.34256 5.74544 3.24294 5.36849 3.24293C4.99155 3.24293 4.62125 3.34255 4.29481 3.53178C3.96837 3.72101 3.69728 3.99318 3.50881 4.32094C3.32033 4.6487 3.2211 5.0205 3.22109 5.39897V26.602C3.2211 26.9804 3.32033 27.3522 3.50881 27.68C3.69728 28.0078 3.96837 28.2799 4.29481 28.4692C4.62125 28.6584 4.99155 28.758 5.36849 28.758C5.74544 28.758 6.11574 28.6584 6.44218 28.4691L24.7058 17.8676C25.0322 17.6784 25.3032 17.4062 25.4917 17.0785C25.6801 16.7507 25.7794 16.3789 25.7794 16.0005C25.7794 15.622 25.6801 15.2502 25.4917 14.9225C25.3032 14.5947 25.0322 14.3225 24.7058 14.1333ZM26.3184 20.6663C29.8939 18.5921 29.8939 13.4088 26.3184 11.3325L8.05487 0.731032C4.47731 -1.34528 0 1.24849 0 5.39897V26.602C0 30.7524 4.47731 33.3462 8.05487 31.2677L26.3184 20.6663Z" fill="#5A77DF"/>
</svg>
