<svg width="34" height="34" viewBox="0 0 34 34" fill="none" xmlns="http://www.w3.org/2000/svg">
<path d="M33 17C33 25.8366 25.8366 33 17 33C8.16344 33 1 25.8366 1 17C1 8.16344 8.16344 1 17 1C25.8366 1 33 8.16344 33 17Z" fill="#EDEEF0"/>
<path d="M17 33C8.15294 33 1 25.8471 1 17C1 8.15294 8.15294 1 17 1C25.8471 1 33 8.15294 33 17C33 25.8471 25.7529 33 17 33ZM17 2.88235C9.18824 2.88235 2.88235 9.18824 2.88235 17C2.88235 24.8118 9.18824 31.1176 17 31.1176C24.8118 31.1176 31.1176 24.8118 31.1176 17C31.1176 9.18824 24.7176 2.88235 17 2.88235Z" fill="#5A77DF"/>
<path d="M7.77647 28.5765L6.08235 27.8235C6.55294 26.6941 8.05882 26.0353 9.65882 25.2824C11.2588 24.5294 13.2353 23.6824 13.2353 22.6471V21.2353C12.6706 20.7647 11.7294 19.7294 11.5412 18.2235C11.0706 17.7529 10.3176 16.9059 10.3176 15.7765C10.3176 15.1176 10.6 14.5529 10.7882 14.1765C10.6 13.4235 10.4118 12.0118 10.4118 10.8824C10.4118 7.21176 12.9529 4.76471 17 4.76471C18.1294 4.76471 19.5412 5.04706 20.2941 5.89412C22.0824 6.27059 23.5882 8.34118 23.5882 10.8824C23.5882 12.4824 23.3059 13.8 23.1176 14.4588C23.3059 14.7412 23.4941 15.2118 23.4941 15.7765C23.4941 17 22.8353 17.8471 22.2706 18.2235C22.0824 19.7294 21.2353 20.6706 20.6706 21.1412V22.6471C20.6706 23.4941 22.3647 24.1529 23.8706 24.7176C25.6588 25.3765 27.5412 26.1294 28.2 27.6353L26.4118 28.2941C26.1294 27.5412 24.6235 26.9765 23.2118 26.5059C21.1412 25.7529 18.7882 24.9059 18.7882 22.7412V20.2941L19.2588 20.0118C19.2588 20.0118 20.3882 19.2588 20.3882 17.7529V17.0941L20.9529 16.8118C21.0471 16.8118 21.5176 16.5294 21.5176 15.7765C21.5176 15.5882 21.3294 15.3059 21.2353 15.2118L20.8588 14.8353L21.0471 14.3647C21.0471 14.3647 21.5176 12.8588 21.5176 10.9765C21.5176 9.18824 20.4824 7.87059 19.6353 7.87059H19.0706L18.7882 7.4C18.7882 7.02353 18.1294 6.64706 17 6.64706C14.0824 6.64706 12.2941 8.24706 12.2941 10.8824C12.2941 12.1059 12.7647 14.1765 12.7647 14.1765L12.8588 14.6471L12.4824 15.1176C12.3882 15.1176 12.2 15.4 12.2 15.7765C12.2 16.2471 12.7647 16.8118 13.0471 17L13.4235 17.2824V17.7529C13.4235 19.1647 14.6471 19.9176 14.6471 20.0118L15.1176 20.2941V22.7412C15.1176 25 12.6706 26.1294 10.4118 27.0706C9.37647 27.4471 7.96471 28.1059 7.77647 28.5765Z" fill="#5A77DF"/>
<path d="M33 17C33 25.8366 25.8366 33 17 33M33 17C33 8.16344 25.8366 1 17 1M33 17C33 8.15294 25.8471 1 17 1M33 17C33 25.8471 25.7529 33 17 33M17 33C8.16344 33 1 25.8366 1 17M17 33C8.15294 33 1 25.8471 1 17M1 17C1 8.16344 8.16344 1 17 1M1 17C1 8.15294 8.15294 1 17 1M17 2.88235C9.18824 2.88235 2.88235 9.18824 2.88235 17C2.88235 24.8118 9.18824 31.1176 17 31.1176C24.8118 31.1176 31.1176 24.8118 31.1176 17C31.1176 9.18824 24.7176 2.88235 17 2.88235ZM7.77647 28.5765L6.08235 27.8235C6.55294 26.6941 8.05882 26.0353 9.65882 25.2824C11.2588 24.5294 13.2353 23.6824 13.2353 22.6471V21.2353C12.6706 20.7647 11.7294 19.7294 11.5412 18.2235C11.0706 17.7529 10.3176 16.9059 10.3176 15.7765C10.3176 15.1176 10.6 14.5529 10.7882 14.1765C10.6 13.4235 10.4118 12.0118 10.4118 10.8824C10.4118 7.21176 12.9529 4.76471 17 4.76471C18.1294 4.76471 19.5412 5.04706 20.2941 5.89412C22.0824 6.27059 23.5882 8.34118 23.5882 10.8824C23.5882 12.4824 23.3059 13.8 23.1176 14.4588C23.3059 14.7412 23.4941 15.2118 23.4941 15.7765C23.4941 17 22.8353 17.8471 22.2706 18.2235C22.0824 19.7294 21.2353 20.6706 20.6706 21.1412V22.6471C20.6706 23.4941 22.3647 24.1529 23.8706 24.7176C25.6588 25.3765 27.5412 26.1294 28.2 27.6353L26.4118 28.2941C26.1294 27.5412 24.6235 26.9765 23.2118 26.5059C21.1412 25.7529 18.7882 24.9059 18.7882 22.7412V20.2941L19.2588 20.0118C19.2588 20.0118 20.3882 19.2588 20.3882 17.7529V17.0941L20.9529 16.8118C21.0471 16.8118 21.5176 16.5294 21.5176 15.7765C21.5176 15.5882 21.3294 15.3059 21.2353 15.2118L20.8588 14.8353L21.0471 14.3647C21.0471 14.3647 21.5176 12.8588 21.5176 10.9765C21.5176 9.18824 20.4824 7.87059 19.6353 7.87059H19.0706L18.7882 7.4C18.7882 7.02353 18.1294 6.64706 17 6.64706C14.0824 6.64706 12.2941 8.24706 12.2941 10.8824C12.2941 12.1059 12.7647 14.1765 12.7647 14.1765L12.8588 14.6471L12.4824 15.1176C12.3882 15.1176 12.2 15.4 12.2 15.7765C12.2 16.2471 12.7647 16.8118 13.0471 17L13.4235 17.2824V17.7529C13.4235 19.1647 14.6471 19.9176 14.6471 20.0118L15.1176 20.2941V22.7412C15.1176 25 12.6706 26.1294 10.4118 27.0706C9.37647 27.4471 7.96471 28.1059 7.77647 28.5765Z" stroke="#5A77DF"/>
</svg>
