<svg width="54" height="54" viewBox="0 0 54 54" fill="none" xmlns="http://www.w3.org/2000/svg">
<g filter="url(#filter0_d_524_192)">
<path d="M43 27C43 35.8366 35.8366 43 27 43C18.1634 43 11 35.8366 11 27C11 18.1634 18.1634 11 27 11C35.8366 11 43 18.1634 43 27Z" fill="#EDEEF0"/>
<path d="M27 43C18.1529 43 11 35.8471 11 27C11 18.1529 18.1529 11 27 11C35.8471 11 43 18.1529 43 27C43 35.8471 35.7529 43 27 43ZM27 12.8824C19.1882 12.8824 12.8824 19.1882 12.8824 27C12.8824 34.8118 19.1882 41.1176 27 41.1176C34.8118 41.1176 41.1176 34.8118 41.1176 27C41.1176 19.1882 34.7176 12.8824 27 12.8824Z" fill="#5A77DF"/>
<path d="M17.7765 38.5765L16.0824 37.8235C16.5529 36.6941 18.0588 36.0353 19.6588 35.2824C21.2588 34.5294 23.2353 33.6824 23.2353 32.6471V31.2353C22.6706 30.7647 21.7294 29.7294 21.5412 28.2235C21.0706 27.7529 20.3176 26.9059 20.3176 25.7765C20.3176 25.1176 20.6 24.5529 20.7882 24.1765C20.6 23.4235 20.4118 22.0118 20.4118 20.8824C20.4118 17.2118 22.9529 14.7647 27 14.7647C28.1294 14.7647 29.5412 15.0471 30.2941 15.8941C32.0824 16.2706 33.5882 18.3412 33.5882 20.8824C33.5882 22.4824 33.3059 23.8 33.1176 24.4588C33.3059 24.7412 33.4941 25.2118 33.4941 25.7765C33.4941 27 32.8353 27.8471 32.2706 28.2235C32.0824 29.7294 31.2353 30.6706 30.6706 31.1412V32.6471C30.6706 33.4941 32.3647 34.1529 33.8706 34.7176C35.6588 35.3765 37.5412 36.1294 38.2 37.6353L36.4118 38.2941C36.1294 37.5412 34.6235 36.9765 33.2118 36.5059C31.1412 35.7529 28.7882 34.9059 28.7882 32.7412V30.2941L29.2588 30.0118C29.2588 30.0118 30.3882 29.2588 30.3882 27.7529V27.0941L30.9529 26.8118C31.0471 26.8118 31.5176 26.5294 31.5176 25.7765C31.5176 25.5882 31.3294 25.3059 31.2353 25.2118L30.8588 24.8353L31.0471 24.3647C31.0471 24.3647 31.5176 22.8588 31.5176 20.9765C31.5176 19.1882 30.4824 17.8706 29.6353 17.8706H29.0706L28.7882 17.4C28.7882 17.0235 28.1294 16.6471 27 16.6471C24.0824 16.6471 22.2941 18.2471 22.2941 20.8824C22.2941 22.1059 22.7647 24.1765 22.7647 24.1765L22.8588 24.6471L22.4824 25.1176C22.3882 25.1176 22.2 25.4 22.2 25.7765C22.2 26.2471 22.7647 26.8118 23.0471 27L23.4235 27.2824V27.7529C23.4235 29.1647 24.6471 29.9176 24.6471 30.0118L25.1176 30.2941V32.7412C25.1176 35 22.6706 36.1294 20.4118 37.0706C19.3765 37.4471 17.9647 38.1059 17.7765 38.5765Z" fill="#5A77DF"/>
<path d="M43 27C43 35.8366 35.8366 43 27 43M43 27C43 18.1634 35.8366 11 27 11M43 27C43 18.1529 35.8471 11 27 11M43 27C43 35.8471 35.7529 43 27 43M27 43C18.1634 43 11 35.8366 11 27M27 43C18.1529 43 11 35.8471 11 27M11 27C11 18.1634 18.1634 11 27 11M11 27C11 18.1529 18.1529 11 27 11M27 12.8824C19.1882 12.8824 12.8824 19.1882 12.8824 27C12.8824 34.8118 19.1882 41.1176 27 41.1176C34.8118 41.1176 41.1176 34.8118 41.1176 27C41.1176 19.1882 34.7176 12.8824 27 12.8824ZM17.7765 38.5765L16.0824 37.8235C16.5529 36.6941 18.0588 36.0353 19.6588 35.2824C21.2588 34.5294 23.2353 33.6824 23.2353 32.6471V31.2353C22.6706 30.7647 21.7294 29.7294 21.5412 28.2235C21.0706 27.7529 20.3176 26.9059 20.3176 25.7765C20.3176 25.1176 20.6 24.5529 20.7882 24.1765C20.6 23.4235 20.4118 22.0118 20.4118 20.8824C20.4118 17.2118 22.9529 14.7647 27 14.7647C28.1294 14.7647 29.5412 15.0471 30.2941 15.8941C32.0824 16.2706 33.5882 18.3412 33.5882 20.8824C33.5882 22.4824 33.3059 23.8 33.1176 24.4588C33.3059 24.7412 33.4941 25.2118 33.4941 25.7765C33.4941 27 32.8353 27.8471 32.2706 28.2235C32.0824 29.7294 31.2353 30.6706 30.6706 31.1412V32.6471C30.6706 33.4941 32.3647 34.1529 33.8706 34.7176C35.6588 35.3765 37.5412 36.1294 38.2 37.6353L36.4118 38.2941C36.1294 37.5412 34.6235 36.9765 33.2118 36.5059C31.1412 35.7529 28.7882 34.9059 28.7882 32.7412V30.2941L29.2588 30.0118C29.2588 30.0118 30.3882 29.2588 30.3882 27.7529V27.0941L30.9529 26.8118C31.0471 26.8118 31.5176 26.5294 31.5176 25.7765C31.5176 25.5882 31.3294 25.3059 31.2353 25.2118L30.8588 24.8353L31.0471 24.3647C31.0471 24.3647 31.5176 22.8588 31.5176 20.9765C31.5176 19.1882 30.4824 17.8706 29.6353 17.8706H29.0706L28.7882 17.4C28.7882 17.0235 28.1294 16.6471 27 16.6471C24.0824 16.6471 22.2941 18.2471 22.2941 20.8824C22.2941 22.1059 22.7647 24.1765 22.7647 24.1765L22.8588 24.6471L22.4824 25.1176C22.3882 25.1176 22.2 25.4 22.2 25.7765C22.2 26.2471 22.7647 26.8118 23.0471 27L23.4235 27.2824V27.7529C23.4235 29.1647 24.6471 29.9176 24.6471 30.0118L25.1176 30.2941V32.7412C25.1176 35 22.6706 36.1294 20.4118 37.0706C19.3765 37.4471 17.9647 38.1059 17.7765 38.5765Z" stroke="#5A77DF"/>
</g>
<defs>
<filter id="filter0_d_524_192" x="0.5" y="0.5" width="53" height="53" filterUnits="userSpaceOnUse" color-interpolation-filters="sRGB">
<feFlood flood-opacity="0" result="BackgroundImageFix"/>
<feColorMatrix in="SourceAlpha" type="matrix" values="0 0 0 0 0 0 0 0 0 0 0 0 0 0 0 0 0 0 127 0" result="hardAlpha"/>
<feMorphology radius="3" operator="dilate" in="SourceAlpha" result="effect1_dropShadow_524_192"/>
<feOffset/>
<feGaussianBlur stdDeviation="3.5"/>
<feComposite in2="hardAlpha" operator="out"/>
<feColorMatrix type="matrix" values="0 0 0 0 0.196078 0 0 0 0 0.223529 0 0 0 0 0.333333 0 0 0 0.75 0"/>
<feBlend mode="normal" in2="BackgroundImageFix" result="effect1_dropShadow_524_192"/>
<feBlend mode="normal" in="SourceGraphic" in2="effect1_dropShadow_524_192" result="shape"/>
</filter>
</defs>
</svg>
