<svg width="36" height="36" viewBox="0 0 36 36" fill="none" xmlns="http://www.w3.org/2000/svg">
<path d="M2 10.2162C2 7.82797 3.93607 5.89191 6.32432 5.89191H25.3513C27.7396 5.89191 29.6757 7.82797 29.6757 10.2162V29.2433C29.6757 31.6315 27.7396 33.5676 25.3514 33.5676H6.32433C3.93607 33.5676 2 31.6315 2 29.2433V10.2162Z" fill="#EDEEF0" stroke="#5A77DF" stroke-width="3"/>
<path d="M28.4058 3.39225C29.0203 2.77769 29.8539 2.43243 30.723 2.43243C31.5921 2.43243 32.4256 2.77769 33.0402 3.39225C33.6547 4.00682 34 4.84034 34 5.70947C34 6.57859 33.6547 7.41211 33.0402 8.02668L18.5576 22.5092L12.3784 24.0541L13.9232 17.8748L28.4058 3.39225Z" fill="#EDEEF0" stroke="#5A77DF" stroke-width="3" stroke-linecap="round" stroke-linejoin="round"/>
</svg>
