<svg width="29" height="36" viewBox="0 0 29 36" fill="none" xmlns="http://www.w3.org/2000/svg">
<path d="M14.8189 34C21.8172 34 26.9999 29.0844 26.9999 22.3167C26.9999 18.2717 25.1155 16.2778 22.3827 13.389L22.3465 13.3492C19.8637 10.7235 16.9344 7.54911 16.0551 2C14.7532 2.76823 13.6299 3.80684 12.7603 5.0463C11.4034 7.0264 10.7827 9.60364 12.3879 12.8265C13.4275 14.9122 13.7275 17.569 11.9103 19.3933C10.7775 20.5305 8.87235 21.2973 6.81373 20.4076C5.51718 19.8468 4.48097 18.7547 3.64477 17.3094C2.66718 18.5314 1.99994 20.3211 1.99994 22.3167C1.99994 28.9753 7.66891 34 14.8189 34Z" fill="#EDEEF0" stroke="#5A77DF" stroke-width="3" stroke-linejoin="round"/>
</svg>
