<svg width="24" height="24" viewBox="0 0 24 24" fill="none" xmlns="http://www.w3.org/2000/svg">
<path d="M23.3927 5.193C23.3367 5.05464 23.248 4.93191 23.1342 4.83535C23.0203 4.73879 22.8848 4.67129 22.7392 4.63862C22.5935 4.60595 22.4421 4.6091 22.2979 4.64779C22.1538 4.68648 22.0212 4.75956 21.9114 4.86076L17.2623 9.15113L15.2746 8.72428L14.8477 6.73657L19.1381 2.08742C19.2393 1.9777 19.3124 1.84507 19.3511 1.7009C19.3898 1.55674 19.3929 1.40534 19.3602 1.25969C19.3276 1.11405 19.2601 0.978498 19.1635 0.864669C19.0669 0.750841 18.9442 0.662131 18.8058 0.606147C17.5448 0.096048 16.1779 -0.0965516 14.825 0.045271C13.4722 0.187094 12.1748 0.658997 11.047 1.41952C9.91925 2.18004 8.99549 3.20591 8.35694 4.40697C7.71838 5.60804 7.38458 6.94756 7.38485 8.30782C7.38335 9.45647 7.619 10.5931 8.07703 11.6464L1.13098 17.6523C1.11368 17.6661 1.09753 17.6823 1.08138 17.6973C0.388983 18.3897 0 19.3288 0 20.3079C0 20.7928 0.0954978 21.2729 0.281041 21.7208C0.466584 22.1688 0.738539 22.5758 1.08138 22.9186C1.42422 23.2615 1.83123 23.5334 2.27917 23.719C2.72711 23.9045 3.20721 24 3.69206 24C4.67125 24 5.61034 23.611 6.30274 22.9186C6.31773 22.9036 6.33388 22.8863 6.34773 22.8702L12.3524 15.9218C13.6173 16.4771 15.0007 16.7081 16.3773 16.5939C17.754 16.4798 19.0804 16.0241 20.2366 15.2681C21.3928 14.5122 22.3422 13.4798 22.9988 12.2645C23.6554 11.0491 23.9986 9.6892 23.9972 8.30782C23.999 7.24023 23.7937 6.18242 23.3927 5.193ZM15.691 14.7682C14.5986 14.7667 13.5243 14.4889 12.5681 13.9606C12.3829 13.8583 12.1681 13.8227 11.9597 13.8599C11.7514 13.8971 11.5622 14.0047 11.4237 14.1648L4.9749 21.6335C4.62593 21.965 4.16124 22.1471 3.67992 22.141C3.1986 22.1348 2.73873 21.9409 2.39836 21.6005C2.05799 21.2601 1.86405 20.8002 1.85789 20.3189C1.85172 19.8376 2.03383 19.3729 2.36538 19.0239L9.82825 12.5763C9.98861 12.4378 10.0964 12.2483 10.1336 12.0397C10.1708 11.8311 10.1351 11.6161 10.0324 11.4307C9.44412 10.3666 9.16802 9.15816 9.23589 7.94417C9.30376 6.73019 9.71283 5.56 10.4161 4.56814C11.1193 3.57628 12.0882 2.80301 13.2114 2.33723C14.3345 1.87146 15.5663 1.73208 16.7651 1.93514L13.1657 5.83558C13.0656 5.94422 12.993 6.07532 12.954 6.21785C12.9151 6.36039 12.9109 6.51019 12.9419 6.65466L13.5949 9.69219C13.6322 9.86591 13.7189 10.0252 13.8446 10.1508C13.9702 10.2765 14.1295 10.3632 14.3032 10.4005L17.343 11.0535C17.4875 11.0845 17.6373 11.0803 17.7798 11.0414C17.9224 11.0024 18.0535 10.9298 18.1621 10.8297L22.0626 7.23033C22.2181 8.1567 22.1699 9.10584 21.9214 10.0117C21.6729 10.9176 21.2301 11.7585 20.6237 12.4759C20.0173 13.1932 19.2619 13.7699 18.4101 14.1658C17.5582 14.5617 16.6304 14.7672 15.691 14.7682Z" fill="#999999"/>
</svg>
