<svg width="34" height="34" viewBox="0 0 34 34" fill="none" xmlns="http://www.w3.org/2000/svg">
<path d="M32.9999 17C32.9999 25.8366 25.8365 33 16.9999 33C8.16338 33 0.999939 25.8366 0.999939 17C0.999939 8.16344 8.16338 1 16.9999 1C25.8365 1 32.9999 8.16344 32.9999 17Z" fill="#EDEEF0"/>
<path d="M16.9999 33C8.15288 33 0.999939 25.8471 0.999939 17C0.999939 8.15294 8.15288 1 16.9999 1C25.847 1 32.9999 8.15294 32.9999 17C32.9999 25.8471 25.7529 33 16.9999 33ZM16.9999 2.88235C9.18817 2.88235 2.88229 9.18824 2.88229 17C2.88229 24.8118 9.18817 31.1176 16.9999 31.1176C24.8117 31.1176 31.1176 24.8118 31.1176 17C31.1176 9.18824 24.7176 2.88235 16.9999 2.88235Z" fill="#5A77DF"/>
<path d="M7.77641 28.5765L6.08229 27.8235C6.55288 26.6941 8.05876 26.0353 9.65876 25.2824C11.2588 24.5294 13.2352 23.6824 13.2352 22.6471V21.2353C12.6705 20.7647 11.7294 19.7294 11.5411 18.2235C11.0705 17.7529 10.3176 16.9059 10.3176 15.7765C10.3176 15.1176 10.5999 14.5529 10.7882 14.1765C10.5999 13.4235 10.4117 12.0118 10.4117 10.8824C10.4117 7.21176 12.9529 4.76471 16.9999 4.76471C18.1294 4.76471 19.5411 5.04706 20.2941 5.89412C22.0823 6.27059 23.5882 8.34118 23.5882 10.8824C23.5882 12.4824 23.3058 13.8 23.1176 14.4588C23.3058 14.7412 23.4941 15.2118 23.4941 15.7765C23.4941 17 22.8352 17.8471 22.2705 18.2235C22.0823 19.7294 21.2352 20.6706 20.6705 21.1412V22.6471C20.6705 23.4941 22.3646 24.1529 23.8705 24.7176C25.6588 25.3765 27.5411 26.1294 28.1999 27.6353L26.4117 28.2941C26.1293 27.5412 24.6235 26.9765 23.2117 26.5059C21.1411 25.7529 18.7882 24.9059 18.7882 22.7412V20.2941L19.2588 20.0118C19.2588 20.0118 20.3882 19.2588 20.3882 17.7529V17.0941L20.9529 16.8118C21.047 16.8118 21.5176 16.5294 21.5176 15.7765C21.5176 15.5882 21.3294 15.3059 21.2352 15.2118L20.8588 14.8353L21.047 14.3647C21.047 14.3647 21.5176 12.8588 21.5176 10.9765C21.5176 9.18824 20.4823 7.87059 19.6352 7.87059H19.0705L18.7882 7.4C18.7882 7.02353 18.1294 6.64706 16.9999 6.64706C14.0823 6.64706 12.2941 8.24706 12.2941 10.8824C12.2941 12.1059 12.7646 14.1765 12.7646 14.1765L12.8588 14.6471L12.4823 15.1176C12.3882 15.1176 12.1999 15.4 12.1999 15.7765C12.1999 16.2471 12.7646 16.8118 13.047 17L13.4235 17.2824V17.7529C13.4235 19.1647 14.647 19.9176 14.647 20.0118L15.1176 20.2941V22.7412C15.1176 25 12.6705 26.1294 10.4117 27.0706C9.37641 27.4471 7.96464 28.1059 7.77641 28.5765Z" fill="#5A77DF"/>
<path d="M32.9999 17C32.9999 25.8366 25.8365 33 16.9999 33M32.9999 17C32.9999 8.16344 25.8365 1 16.9999 1M32.9999 17C32.9999 8.15294 25.847 1 16.9999 1M32.9999 17C32.9999 25.8471 25.7529 33 16.9999 33M16.9999 33C8.16338 33 0.999939 25.8366 0.999939 17M16.9999 33C8.15288 33 0.999939 25.8471 0.999939 17M0.999939 17C0.999939 8.16344 8.16338 1 16.9999 1M0.999939 17C0.999939 8.15294 8.15288 1 16.9999 1M16.9999 2.88235C9.18817 2.88235 2.88229 9.18824 2.88229 17C2.88229 24.8118 9.18817 31.1176 16.9999 31.1176C24.8117 31.1176 31.1176 24.8118 31.1176 17C31.1176 9.18824 24.7176 2.88235 16.9999 2.88235ZM7.77641 28.5765L6.08229 27.8235C6.55288 26.6941 8.05876 26.0353 9.65876 25.2824C11.2588 24.5294 13.2352 23.6824 13.2352 22.6471V21.2353C12.6705 20.7647 11.7294 19.7294 11.5411 18.2235C11.0705 17.7529 10.3176 16.9059 10.3176 15.7765C10.3176 15.1176 10.5999 14.5529 10.7882 14.1765C10.5999 13.4235 10.4117 12.0118 10.4117 10.8824C10.4117 7.21176 12.9529 4.76471 16.9999 4.76471C18.1294 4.76471 19.5411 5.04706 20.2941 5.89412C22.0823 6.27059 23.5882 8.34118 23.5882 10.8824C23.5882 12.4824 23.3058 13.8 23.1176 14.4588C23.3058 14.7412 23.4941 15.2118 23.4941 15.7765C23.4941 17 22.8352 17.8471 22.2705 18.2235C22.0823 19.7294 21.2352 20.6706 20.6705 21.1412V22.6471C20.6705 23.4941 22.3646 24.1529 23.8705 24.7176C25.6588 25.3765 27.5411 26.1294 28.1999 27.6353L26.4117 28.2941C26.1293 27.5412 24.6235 26.9765 23.2117 26.5059C21.1411 25.7529 18.7882 24.9059 18.7882 22.7412V20.2941L19.2588 20.0118C19.2588 20.0118 20.3882 19.2588 20.3882 17.7529V17.0941L20.9529 16.8118C21.047 16.8118 21.5176 16.5294 21.5176 15.7765C21.5176 15.5882 21.3294 15.3059 21.2352 15.2118L20.8588 14.8353L21.047 14.3647C21.047 14.3647 21.5176 12.8588 21.5176 10.9765C21.5176 9.18824 20.4823 7.87059 19.6352 7.87059H19.0705L18.7882 7.4C18.7882 7.02353 18.1294 6.64706 16.9999 6.64706C14.0823 6.64706 12.2941 8.24706 12.2941 10.8824C12.2941 12.1059 12.7646 14.1765 12.7646 14.1765L12.8588 14.6471L12.4823 15.1176C12.3882 15.1176 12.1999 15.4 12.1999 15.7765C12.1999 16.2471 12.7646 16.8118 13.047 17L13.4235 17.2824V17.7529C13.4235 19.1647 14.647 19.9176 14.647 20.0118L15.1176 20.2941V22.7412C15.1176 25 12.6705 26.1294 10.4117 27.0706C9.37641 27.4471 7.96464 28.1059 7.77641 28.5765Z" stroke="#5A77DF"/>
</svg>
