<svg width="40" height="41" viewBox="0 0 40 41" fill="none" xmlns="http://www.w3.org/2000/svg">
<path fill-rule="evenodd" clip-rule="evenodd" d="M27.273 15.0454C27.273 16.9743 26.5068 18.8241 25.1429 20.188C23.779 21.5519 21.9291 22.3182 20.0003 22.3182C18.0714 22.3182 16.2216 21.5519 14.8577 20.188C13.4938 18.8241 12.7275 16.9743 12.7275 15.0454C12.7275 13.1166 13.4938 11.2667 14.8577 9.90284C16.2216 8.53894 18.0714 7.77271 20.0003 7.77271C21.9291 7.77271 23.779 8.53894 25.1429 9.90284C26.5068 11.2667 27.273 13.1166 27.273 15.0454ZM23.6366 15.0454C23.6366 16.0099 23.2535 16.9348 22.5716 17.6167C21.8896 18.2987 20.9647 18.6818 20.0003 18.6818C19.0358 18.6818 18.1109 18.2987 17.429 17.6167C16.747 16.9348 16.3639 16.0099 16.3639 15.0454C16.3639 14.081 16.747 13.1561 17.429 12.4741C18.1109 11.7922 19.0358 11.4091 20.0003 11.4091C20.9647 11.4091 21.8896 11.7922 22.5716 12.4741C23.2535 13.1561 23.6366 14.081 23.6366 15.0454Z" fill="#F8F8F8"/>
<path fill-rule="evenodd" clip-rule="evenodd" d="M20 0.5C8.95455 0.5 0 9.45455 0 20.5C0 31.5455 8.95455 40.5 20 40.5C31.0455 40.5 40 31.5455 40 20.5C40 9.45455 31.0455 0.5 20 0.5ZM3.63636 20.5C3.63636 24.3 4.93273 27.7982 7.10545 30.5764C8.63133 28.5725 10.5998 26.9486 12.8572 25.8315C15.1145 24.7143 17.5995 24.1342 20.1182 24.1364C22.6042 24.134 25.058 24.6991 27.2926 25.7887C29.5272 26.8783 31.4836 28.4635 33.0127 30.4236C34.5881 28.3575 35.6488 25.9458 36.1071 23.3883C36.5654 20.8308 36.4081 18.201 35.6482 15.7163C34.8883 13.2317 33.5477 10.9637 31.7372 9.10007C29.9268 7.23641 27.6986 5.83065 25.2371 4.99911C22.7755 4.16756 20.1513 3.93413 17.5816 4.31813C15.0119 4.70214 12.5705 5.69253 10.4596 7.20737C8.34863 8.72221 6.62875 10.7179 5.44223 13.0294C4.25572 15.3409 3.63669 17.9018 3.63636 20.5ZM20 36.8636C16.2435 36.8693 12.6005 35.577 9.68727 33.2055C10.8599 31.5268 12.4206 30.1562 14.2367 29.2103C16.0528 28.2645 18.0705 27.7713 20.1182 27.7727C22.1403 27.7711 24.1336 28.252 25.9326 29.1753C27.7316 30.0987 29.2843 31.4379 30.4618 33.0818C27.526 35.5304 23.8229 36.869 20 36.8636Z" fill="#F8F8F8"/>
</svg>
